<svg xmlns="http://www.w3.org/2000/svg" width="152.693" height="36.853" viewBox="0 0 114.52 27.64"><defs><clipPath id="a"><path d="M2 1h25v22H2Zm0 0"/></clipPath><clipPath id="b"><path d="M2 13.93c0 1.418.234 2.886.91 4.05 1.184 2.024 3.262 3.168 5.414 4.07q.787.33 1.59.571c-3.168-1.61-5.348-4.902-5.348-8.691 0-5.375 4.368-9.742 9.739-9.742 5.37 0 9.738 4.367 9.738 9.742 0 3.785-2.176 7.078-5.34 8.687q.79-.239 1.563-.558.21-.09.422-.184l.105-.05.129-.063q.095-.04.183-.086.08-.043.16-.078l.133-.07.118-.06.214-.116.106-.059q.042-.023.078-.047.147-.084.29-.168l.046-.027c.02-.012.043-.024.059-.035.105-.063.207-.13.308-.192l.04-.027c.011-.008.027-.016.034-.024q.17-.107.325-.214l.058-.04a18 18 0 0 0 .332-.234l.035-.027c.11-.082.22-.164.336-.258l.02-.016c.117-.086.23-.175.348-.277l.007-.004c.637-.531 1.133-1.02 1.547-1.73.68-1.16.914-2.63.914-4.043 0-6.79-5.523-12.309-12.308-12.309S2 7.141 2 13.93"/></clipPath><clipPath id="d"><path d="M3 19h23v8H3Zm0 0"/></clipPath><clipPath id="e"><path d="m24.54 20.164-.009.008-.36.289-.015.012a8 8 0 0 1-.36.27l-.034.03c-.13.09-.242.172-.348.243l-.055.039c-.136.093-.238.16-.336.226-.015.008-.03.02-.046.028l-.032.023c-.105.066-.215.133-.32.2l-.07.038-.043.028-.297.175c-.027.016-.063.032-.09.047l-.102.059c-.074.039-.148.082-.226.121l-.125.066-.133.067-.168.086-.191.093-.125.055q-.06.031-.117.055-.218.1-.442.195a16 16 0 0 1-6.191 1.238c-2.157 0-4.246-.418-6.215-1.246a16.2 16.2 0 0 1-4.738-3.074c2.043 3.973 6.187 6.695 10.953 6.695 4.77 0 8.914-2.726 10.957-6.703q-.353.331-.723.637"/></clipPath><clipPath id="g"><path d="M106 15h7.547v4H106Zm0 0"/></clipPath><clipPath id="h"><path d="M110 9h3.547v8H110Zm0 0"/></clipPath><radialGradient id="c" cx="0" cy="0" r="13.377" fx="0" fy="0" gradientTransform="translate(14.306 15.064)" gradientUnits="userSpaceOnUse"><stop offset="0" stop-color="#C8E1F6"/><stop offset=".004" stop-color="#C7E0F6"/><stop offset=".008" stop-color="#C6E0F6"/><stop offset=".012" stop-color="#C6E0F6"/><stop offset=".016" stop-color="#C5DFF6"/><stop offset=".02" stop-color="#C4DFF6"/><stop offset=".023" stop-color="#C3DFF6"/><stop offset=".027" stop-color="#C2DEF6"/><stop offset=".031" stop-color="#C1DEF6"/><stop offset=".035" stop-color="#C0DEF6"/><stop offset=".039" stop-color="#BFDDF6"/><stop offset=".043" stop-color="#BEDDF5"/><stop offset=".047" stop-color="#BDDCF5"/><stop offset=".051" stop-color="#BCDCF5"/><stop offset=".055" stop-color="#BBDCF5"/><stop offset=".059" stop-color="#BADBF5"/><stop offset=".063" stop-color="#B9DBF5"/><stop offset=".066" stop-color="#B8DBF5"/><stop offset=".07" stop-color="#B7DAF5"/><stop offset=".074" stop-color="#B6DAF5"/><stop offset=".078" stop-color="#B5D9F5"/><stop offset=".082" stop-color="#B4D9F5"/><stop offset=".086" stop-color="#B4D9F5"/><stop offset=".09" stop-color="#B3D9F4"/><stop offset=".094" stop-color="#B2D8F4"/><stop offset=".098" stop-color="#B1D8F4"/><stop offset=".102" stop-color="#B0D8F4"/><stop offset=".105" stop-color="#AFD7F4"/><stop offset=".109" stop-color="#AED7F4"/><stop offset=".113" stop-color="#ADD6F4"/><stop offset=".117" stop-color="#ACD6F4"/><stop offset=".121" stop-color="#ABD6F4"/><stop offset=".125" stop-color="#A9D5F4"/><stop offset=".129" stop-color="#A8D5F3"/><stop offset=".133" stop-color="#A7D5F3"/><stop offset=".137" stop-color="#A6D4F3"/><stop offset=".141" stop-color="#A5D4F3"/><stop offset=".145" stop-color="#A4D3F3"/><stop offset=".148" stop-color="#A3D3F3"/><stop offset=".152" stop-color="#A2D3F3"/><stop offset=".156" stop-color="#A1D2F3"/><stop offset=".16" stop-color="#A0D2F3"/><stop offset=".164" stop-color="#9FD2F3"/><stop offset=".168" stop-color="#9ED1F3"/><stop offset=".172" stop-color="#9DD1F2"/><stop offset=".176" stop-color="#9BD0F2"/><stop offset=".18" stop-color="#9AD0F2"/><stop offset=".184" stop-color="#99D0F2"/><stop offset=".188" stop-color="#98CFF2"/><stop offset=".191" stop-color="#97CFF2"/><stop offset=".195" stop-color="#96CFF2"/><stop offset=".199" stop-color="#95CEF2"/><stop offset=".203" stop-color="#95CEF2"/><stop offset=".207" stop-color="#94CEF2"/><stop offset=".211" stop-color="#92CDF2"/><stop offset=".215" stop-color="#91CDF1"/><stop offset=".219" stop-color="#90CDF1"/><stop offset=".223" stop-color="#8FCCF1"/><stop offset=".227" stop-color="#8ECCF1"/><stop offset=".23" stop-color="#8DCCF1"/><stop offset=".234" stop-color="#8BCBF1"/><stop offset=".238" stop-color="#8ACBF1"/><stop offset=".242" stop-color="#89CAF1"/><stop offset=".246" stop-color="#88CAF1"/><stop offset=".25" stop-color="#87CAF0"/><stop offset=".254" stop-color="#85C9F0"/><stop offset=".258" stop-color="#84C9F0"/><stop offset=".262" stop-color="#83C9F0"/><stop offset=".266" stop-color="#81C8F0"/><stop offset=".27" stop-color="#80C8F0"/><stop offset=".273" stop-color="#7FC7F0"/><stop offset=".277" stop-color="#7EC7F0"/><stop offset=".281" stop-color="#7CC7F0"/><stop offset=".285" stop-color="#7BC6EF"/><stop offset=".289" stop-color="#7AC6EF"/><stop offset=".293" stop-color="#78C6EF"/><stop offset=".297" stop-color="#77C5EF"/><stop offset=".301" stop-color="#75C5EF"/><stop offset=".305" stop-color="#74C4EF"/><stop offset=".309" stop-color="#72C4EF"/><stop offset=".313" stop-color="#71C4EF"/><stop offset=".316" stop-color="#71C4EF"/><stop offset=".32" stop-color="#6FC3EF"/><stop offset=".324" stop-color="#6EC3EE"/><stop offset=".328" stop-color="#6CC2EE"/><stop offset=".332" stop-color="#6BC2EE"/><stop offset=".336" stop-color="#69C1EE"/><stop offset=".34" stop-color="#68C1EE"/><stop offset=".344" stop-color="#66C1EE"/><stop offset=".348" stop-color="#64C0EE"/><stop offset=".352" stop-color="#63C0EE"/><stop offset=".355" stop-color="#61BFED"/><stop offset=".359" stop-color="#5FBFED"/><stop offset=".363" stop-color="#5EBFED"/><stop offset=".367" stop-color="#5CBEED"/><stop offset=".371" stop-color="#5ABEED"/><stop offset=".375" stop-color="#58BEED"/><stop offset=".379" stop-color="#56BDED"/><stop offset=".383" stop-color="#55BDED"/><stop offset=".387" stop-color="#53BCEC"/><stop offset=".391" stop-color="#51BCEC"/><stop offset=".543" stop-color="#51BCEC"/><stop offset=".598" stop-color="#51BBEC"/><stop offset=".621" stop-color="#4FBBEC"/><stop offset=".645" stop-color="#50BBEB"/><stop offset=".664" stop-color="#4EBAEB"/><stop offset=".672" stop-color="#4EB9EB"/><stop offset=".68" stop-color="#4EB9EB"/><stop offset=".688" stop-color="#4FB9EA"/><stop offset=".695" stop-color="#4DB8EA"/><stop offset=".703" stop-color="#4DB8EA"/><stop offset=".711" stop-color="#4CB7E9"/><stop offset=".719" stop-color="#4CB7E9"/><stop offset=".727" stop-color="#4AB6E8"/><stop offset=".73" stop-color="#4AB6E8"/><stop offset=".734" stop-color="#4BB5E8"/><stop offset=".738" stop-color="#49B5E8"/><stop offset=".742" stop-color="#49B4E8"/><stop offset=".746" stop-color="#4AB4E7"/><stop offset=".75" stop-color="#48B3E7"/><stop offset=".754" stop-color="#48B3E7"/><stop offset=".758" stop-color="#49B2E6"/><stop offset=".762" stop-color="#47B2E6"/><stop offset=".766" stop-color="#47B2E6"/><stop offset=".77" stop-color="#45B1E5"/><stop offset=".773" stop-color="#46B0E5"/><stop offset=".777" stop-color="#44B0E5"/><stop offset=".781" stop-color="#45AFE4"/><stop offset=".785" stop-color="#43AEE4"/><stop offset=".789" stop-color="#43AEE3"/><stop offset=".793" stop-color="#42ADE3"/><stop offset=".797" stop-color="#42ACE2"/><stop offset=".801" stop-color="#41ACE2"/><stop offset=".805" stop-color="#3FABE1"/><stop offset=".809" stop-color="#3FAAE1"/><stop offset=".813" stop-color="#3EA9E0"/><stop offset=".816" stop-color="#3CA8E0"/><stop offset=".82" stop-color="#3AA7DF"/><stop offset=".824" stop-color="#3CA6DE"/><stop offset=".828" stop-color="#3AA6DE"/><stop offset=".832" stop-color="#39A4DD"/><stop offset=".836" stop-color="#37A3DD"/><stop offset=".84" stop-color="#36A2DC"/><stop offset=".844" stop-color="#34A1DB"/><stop offset=".848" stop-color="#33A0DA"/><stop offset=".852" stop-color="#319FD9"/><stop offset=".855" stop-color="#309DD8"/><stop offset=".859" stop-color="#2F9CD8"/><stop offset=".863" stop-color="#2E9BD7"/><stop offset=".867" stop-color="#2D99D6"/><stop offset=".871" stop-color="#2C98D5"/><stop offset=".875" stop-color="#2A97D4"/><stop offset=".879" stop-color="#2695D3"/><stop offset=".883" stop-color="#2693D2"/><stop offset=".887" stop-color="#2592D1"/><stop offset=".891" stop-color="#2190CF"/><stop offset=".895" stop-color="#208ECE"/><stop offset=".898" stop-color="#208DCD"/><stop offset=".902" stop-color="#1C8ACC"/><stop offset=".906" stop-color="#1B89CB"/><stop offset=".91" stop-color="#1787C9"/><stop offset=".914" stop-color="#1385C8"/><stop offset=".918" stop-color="#1483C6"/><stop offset=".922" stop-color="#1281C4"/><stop offset=".926" stop-color="#0D7FC3"/><stop offset=".93" stop-color="#087DC1"/><stop offset=".934" stop-color="#067ABF"/><stop offset=".938" stop-color="#0178BE"/><stop offset=".941" stop-color="#0075BC"/><stop offset=".945" stop-color="#0073BA"/><stop offset=".949" stop-color="#0071B9"/><stop offset=".953" stop-color="#006EB7"/><stop offset=".957" stop-color="#006CB5"/><stop offset=".961" stop-color="#0068B2"/><stop offset=".965" stop-color="#0066B0"/><stop offset=".969" stop-color="#0063AE"/><stop offset=".973" stop-color="#0060AC"/><stop offset=".977" stop-color="#005DA9"/><stop offset=".98" stop-color="#005BA7"/><stop offset=".984" stop-color="#0058A5"/><stop offset=".988" stop-color="#0055A3"/><stop offset=".992" stop-color="#0051A0"/><stop offset=".996" stop-color="#004E9E"/><stop offset="1" stop-color="#004C9C"/></radialGradient><radialGradient id="f" cx="0" cy="0" r="8.144" fx="0" fy="0" gradientTransform="matrix(1.29343 0 0 .70656 14.533 20.389)" gradientUnits="userSpaceOnUse"><stop offset="0" stop-color="#89BD24"/><stop offset=".25" stop-color="#89BD24"/><stop offset=".344" stop-color="#88BC24"/><stop offset=".383" stop-color="#87BC25"/><stop offset=".418" stop-color="#87BB25"/><stop offset=".434" stop-color="#86BA25"/><stop offset=".449" stop-color="#86BA25"/><stop offset=".465" stop-color="#85BA26"/><stop offset=".48" stop-color="#85BA26"/><stop offset=".496" stop-color="#83B926"/><stop offset=".512" stop-color="#84B827"/><stop offset=".523" stop-color="#82B727"/><stop offset=".535" stop-color="#82B727"/><stop offset=".547" stop-color="#81B728"/><stop offset=".559" stop-color="#80B628"/><stop offset=".57" stop-color="#80B528"/><stop offset=".582" stop-color="#7FB429"/><stop offset=".594" stop-color="#7EB429"/><stop offset=".598" stop-color="#7EB429"/><stop offset=".602" stop-color="#7EB429"/><stop offset=".605" stop-color="#7DB329"/><stop offset=".609" stop-color="#7DB329"/><stop offset=".613" stop-color="#7DB329"/><stop offset=".617" stop-color="#7DB229"/><stop offset=".621" stop-color="#7CB22A"/><stop offset=".625" stop-color="#7CB22A"/><stop offset=".629" stop-color="#7BB12A"/><stop offset=".637" stop-color="#7BB12A"/><stop offset=".645" stop-color="#7AB02B"/><stop offset=".652" stop-color="#79AF2B"/><stop offset=".66" stop-color="#79AF2B"/><stop offset=".668" stop-color="#77AE2B"/><stop offset=".676" stop-color="#76AD2C"/><stop offset=".68" stop-color="#76AD2C"/><stop offset=".684" stop-color="#75AD2C"/><stop offset=".688" stop-color="#75AC2C"/><stop offset=".691" stop-color="#74AC2D"/><stop offset=".695" stop-color="#74AB2D"/><stop offset=".699" stop-color="#74AB2D"/><stop offset=".703" stop-color="#73AA2D"/><stop offset=".707" stop-color="#73AA2D"/><stop offset=".711" stop-color="#72AA2D"/><stop offset=".715" stop-color="#72A92D"/><stop offset=".719" stop-color="#71A92E"/><stop offset=".723" stop-color="#71A82E"/><stop offset=".727" stop-color="#70A82E"/><stop offset=".73" stop-color="#70A82E"/><stop offset=".734" stop-color="#6FA72E"/><stop offset=".738" stop-color="#6FA62E"/><stop offset=".742" stop-color="#6DA62F"/><stop offset=".746" stop-color="#6CA52F"/><stop offset=".75" stop-color="#6CA52F"/><stop offset=".754" stop-color="#6BA52F"/><stop offset=".758" stop-color="#6BA42F"/><stop offset=".762" stop-color="#6AA330"/><stop offset=".766" stop-color="#69A330"/><stop offset=".77" stop-color="#69A330"/><stop offset=".773" stop-color="#68A230"/><stop offset=".777" stop-color="#68A130"/><stop offset=".781" stop-color="#67A131"/><stop offset=".785" stop-color="#66A031"/><stop offset=".789" stop-color="#66A031"/><stop offset=".793" stop-color="#659F31"/><stop offset=".797" stop-color="#639E31"/><stop offset=".801" stop-color="#649E31"/><stop offset=".805" stop-color="#629D32"/><stop offset=".809" stop-color="#619C32"/><stop offset=".813" stop-color="#609C32"/><stop offset=".816" stop-color="#609C32"/><stop offset=".82" stop-color="#5F9B32"/><stop offset=".824" stop-color="#5E9A33"/><stop offset=".828" stop-color="#5D9933"/><stop offset=".832" stop-color="#5D9933"/><stop offset=".836" stop-color="#5C9833"/><stop offset=".84" stop-color="#5A9833"/><stop offset=".844" stop-color="#599734"/><stop offset=".848" stop-color="#589634"/><stop offset=".852" stop-color="#579534"/><stop offset=".855" stop-color="#579534"/><stop offset=".859" stop-color="#569434"/><stop offset=".863" stop-color="#559335"/><stop offset=".867" stop-color="#549235"/><stop offset=".871" stop-color="#539235"/><stop offset=".875" stop-color="#529135"/><stop offset=".879" stop-color="#519035"/><stop offset=".883" stop-color="#4F8F35"/><stop offset=".887" stop-color="#4E8E36"/><stop offset=".891" stop-color="#4D8D36"/><stop offset=".895" stop-color="#4C8D36"/><stop offset=".898" stop-color="#4B8C36"/><stop offset=".902" stop-color="#4A8B36"/><stop offset=".906" stop-color="#498A36"/><stop offset=".91" stop-color="#488937"/><stop offset=".914" stop-color="#478937"/><stop offset=".918" stop-color="#468837"/><stop offset=".922" stop-color="#448737"/><stop offset=".926" stop-color="#438637"/><stop offset=".93" stop-color="#428537"/><stop offset=".934" stop-color="#418437"/><stop offset=".938" stop-color="#3F8338"/><stop offset=".941" stop-color="#3D8238"/><stop offset=".945" stop-color="#3C8238"/><stop offset=".949" stop-color="#3B8138"/><stop offset=".953" stop-color="#3A8038"/><stop offset=".957" stop-color="#387F38"/><stop offset=".961" stop-color="#367E38"/><stop offset=".965" stop-color="#367D38"/><stop offset=".969" stop-color="#357C38"/><stop offset=".973" stop-color="#327B38"/><stop offset=".977" stop-color="#317A38"/><stop offset=".98" stop-color="#307938"/><stop offset=".984" stop-color="#2D7839"/><stop offset=".988" stop-color="#2C7739"/><stop offset=".992" stop-color="#2B7639"/><stop offset=".996" stop-color="#287539"/><stop offset="1" stop-color="#297439"/></radialGradient></defs><path fill="#37AAE1" d="m8.86 13.316-.47 1.532h.934Zm.984 3.086-.211-.648H8.074l-.234.648H6.61l1.792-4.476h.907l1.777 4.476Zm2.696-3.461v1.047H13q.71-.001.71-.52.002-.526-.757-.527Zm0 3.461h-1.095v-4.476h1.461q.976 0 1.375.336.528.438.528 1.187-.002.727-.473 1.16-.417.392-1.309.391h-.488Zm4.01 0h-1.093v-4.476h2.445v1.015h-1.351v.743h1.3v1.015h-1.3Zm4.595-4.05q.16.191.218.37c.043.118.067.286.082.508H20.31q-.06-.432-.407-.43a.4.4 0 0 0-.28.102.3.3 0 0 0-.118.239q.001.27.383.445l.55.246c.375.172.645.355.801.55q.24.3.239.74 0 .644-.41 1.007-.415.363-1.153.363-.752-.001-1.187-.383-.439-.383-.438-1.035v-.148h1.148q.001.279.125.441.126.165.344.164.187-.001.317-.125a.4.4 0 0 0 .129-.304q0-.29-.48-.485l-.52-.215a2.4 2.4 0 0 1-.536-.312 1.13 1.13 0 0 1-.453-.926q0-.561.457-.941.457-.385 1.114-.383c.523 0 .925.168 1.21.512"/><g clip-path="url(#a)"><g clip-path="url(#b)"><path fill="url(#c)" d="M2 1.621v21h24.613v-21Zm0 0"/></g></g><g clip-path="url(#d)"><g clip-path="url(#e)"><path fill="url(#f)" d="M3.352 19.527v6.703h21.91v-6.703Zm0 0"/></g></g><path fill="#646363" d="M54.656 12.762q.244.438.7.836c.367.32.8.566 1.289.746l.578-.899a4 4 0 0 1-.75-.425c-.23-.16-.43-.344-.598-.543a2.3 2.3 0 0 1-.383-.665 2.4 2.4 0 0 1-.137-.808v-.238h1.524V9.78h-4.324v.985h1.402v.238c0 .293-.043.559-.133.809a2.3 2.3 0 0 1-.386.664q-.248.3-.594.543-.345.245-.75.425l.578.899a4.1 4.1 0 0 0 1.285-.746 3.1 3.1 0 0 0 .7-.836m-16.391-.198h2.648v-1.06h-4.996q-.176 0-.246-.054c-.031-.027-.047-.07-.059-.129V9.578h-1.617c.117.078.2.176.258.3q.076.189.078.352v1.532c0 .246.078.437.23.582.157.144.36.219.618.219h1.816v.808h-3.5v1.106h8.274V13.37h-3.504Zm.738 4.792c-.32.168-.77.25-1.34.25q-.849.001-1.352-.25-.503-.248-.503-.648c0-.277.168-.5.504-.656q.502-.239 1.351-.238c.57 0 1.02.078 1.34.238.324.156.484.379.484.656q.001.4-.484.648m1.066-1.921a3.7 3.7 0 0 0-1.03-.387 6.4 6.4 0 0 0-1.388-.137q-.78.001-1.39.137c-.41.094-.754.223-1.043.387q-.425.246-.653.574a1.23 1.23 0 0 0 0 1.406q.228.334.653.574c.289.16.633.285 1.043.38q.61.14 1.39.14.778 0 1.387-.14a4 4 0 0 0 1.031-.38 1.86 1.86 0 0 0 .645-.574 1.25 1.25 0 0 0 .222-.707q0-.376-.222-.7a1.94 1.94 0 0 0-.645-.573m6.266-2.993a1.2 1.2 0 0 1-.223.403 1.1 1.1 0 0 1-.367.285q-.216.105-.496.105-.278 0-.496-.105a1.05 1.05 0 0 1-.363-.285 1.3 1.3 0 0 1-.227-.403 1.46 1.46 0 0 1 0-.933c.05-.149.129-.285.227-.403q.145-.18.363-.285a1.1 1.1 0 0 1 .496-.105q.281 0 .496.105.217.104.367.285.147.178.223.403c.055.152.078.308.078.465 0 .16-.023.32-.078.468m2.418-3.046a.6.6 0 0 1 .242.285.9.9 0 0 1 .094.36v1.417h-1.52a2.4 2.4 0 0 0-.277-.66 2.2 2.2 0 0 0-.488-.547 2.3 2.3 0 0 0-.688-.379 2.7 2.7 0 0 0-.867-.137 2.5 2.5 0 0 0-1.008.192 2.4 2.4 0 0 0-.754.504q-.306.315-.465.718t-.16.825a2.25 2.25 0 0 0 .625 1.547q.31.31.754.503a2.5 2.5 0 0 0 1.008.192q.503.002.906-.149.406-.146.7-.398.3-.252.488-.586.188-.34.254-.703h1.492v2.004l1.277-.004v-4.98Zm8.894 7.921q-.444.26-1.21.262-.773-.002-1.223-.262t-.45-.664q0-.426.45-.695.45-.265 1.222-.266.767.001 1.211.266.446.269.446.695 0 .403-.446.664m1.055-1.98a3.2 3.2 0 0 0-.973-.39 5.3 5.3 0 0 0-1.304-.145q-.737 0-1.317.144a3.3 3.3 0 0 0-.98.39 1.9 1.9 0 0 0-.613.587 1.34 1.34 0 0 0 0 1.437q.212.333.613.578.4.247.98.387a5.4 5.4 0 0 0 1.317.145 5.3 5.3 0 0 0 1.304-.145 3.3 3.3 0 0 0 .973-.387q.394-.245.606-.578.21-.332.21-.718 0-.38-.21-.72a1.9 1.9 0 0 0-.606-.585"/><path fill="#646363" d="M58.137 9.68a.9.9 0 0 1 .093.36v1.253h-1.437v.926h1.437v2.199h1.27v-4.414c0-.012-.004-.02-.004-.031v-.575h-.64l-.012-.003h-.953a.64.64 0 0 1 .246.285m-9.047 7.758h-3.363c-.114 0-.192-.024-.23-.083a.44.44 0 0 1-.06-.253v-.48h3.653Zm.613-2.54h-.945a.58.58 0 0 1 .242.282.85.85 0 0 1 .09.336v.172h-3.653v-.79h-1.593a.6.6 0 0 1 .242.282q.09.194.09.36v1.87c0 .328.086.567.246.723q.246.229.621.23h5.316v-3.465zM65.68 9.879q.053.21.054.363v4.192h1.172v-1.832h.875v1.859h1.192V9.398h-.637l-.008-.003h-.863a.6.6 0 0 1 .242.3q.075.195.074.336v1.645h-.875l.004-2.117-1.45.004a.47.47 0 0 1 .22.316m-2.305 3.125q.088.221.27.45.181.222.417.421t.504.355a2.8 2.8 0 0 0 .532.247l.488-.704c-.523-.261-.926-.582-1.203-.953-.274-.37-.43-.828-.457-1.375h1.46v-.922h-1.452v-.445l-.004-.027v-.586h-1.528a.4.4 0 0 1 .141.129.8.8 0 0 1 .082.172q.03.095.043.183.014.093.016.16v.414h-1.426v.922h1.426c-.036.535-.188.989-.465 1.371-.274.38-.68.715-1.219.996l.633.817a4.1 4.1 0 0 0 1.078-.707q.472-.427.664-.918m9.465.394q-.17 0-.242-.058c-.047-.035-.07-.11-.075-.215v-.809h3.34v1.082Zm2.14.926h2.153l-.004-4.52-1.645-.003q.38.287.38.902v.692h-3.34V9.859h-1.645q.375.287.375.907v2.605q0 .488.246.719a.87.87 0 0 0 .621.234h1.317v1.633H70.27v1.086h7.925v-1.086H74.98Zm5.711-2.371c.172-.2.407-.297.715-.297.317 0 .555.098.723.297.168.192.25.434.25.715q.001.433-.25.715c-.168.191-.406.285-.723.285-.308 0-.543-.094-.715-.285q-.255-.282-.254-.715c0-.281.083-.523.254-.715m.715 2.637c.336 0 .633-.047.903-.149.261-.097.492-.234.675-.402a1.7 1.7 0 0 0 .426-.598q.14-.34.14-.734.001-.802-.566-1.336h1.012v-.926h-1.973l.004-1.058h-1.535a.65.65 0 0 1 .246.308 1 1 0 0 1 .082.336v.414H78.8v.926h1.02a1.6 1.6 0 0 0-.418.602 1.9 1.9 0 0 0-.14.734q.001.394.144.734c.098.227.235.426.422.598.188.168.414.305.676.402.262.102.562.149.902.149m13.172-4.73-5.57-.012v.925h4.328l-.012 2.25h-5.539v1.168h8.274v-1.168h-1.465Zm5.132.75q.458-.224 1.224-.223.772 0 1.222.222.452.221.453.653 0 .434-.453.656-.45.22-1.222.219c-.512 0-.918-.07-1.223-.219-.297-.148-.45-.367-.45-.656s.153-.504.45-.653m-1.059 1.98q.393.253.97.391.573.139 1.312.137c.492 0 .93-.043 1.312-.137q.58-.139.973-.39a1.75 1.75 0 0 0 .594-.59c.136-.23.203-.473.203-.738q0-.394-.204-.735a1.75 1.75 0 0 0-.593-.59 3.1 3.1 0 0 0-.973-.39 5.5 5.5 0 0 0-1.312-.14q-.739 0-1.313.14a3.1 3.1 0 0 0-.969.39c-.265.165-.46.364-.597.59a1.43 1.43 0 0 0-.2.735c0 .265.067.508.2.738.136.227.332.426.597.59m9.172-1.934q.264-.239.774-.238.499-.001.77.238.269.24.269.59t-.27.59q-.27.234-.77.234-.51 0-.773-.234a.75.75 0 0 1-.265-.59q-.002-.35.265-.59m-1.308 1.281c.097.22.242.407.425.567q.28.239.696.379c.273.094.593.14.949.14q.533 0 .95-.14a2.1 2.1 0 0 0 .706-.38 1.62 1.62 0 0 0 .586-1.257q.002-.375-.148-.7a1.64 1.64 0 0 0-.438-.562 2.1 2.1 0 0 0-.707-.379 3 3 0 0 0-.95-.14c-.355 0-.675.047-.948.14a2 2 0 0 0-.696.38 1.65 1.65 0 0 0-.425 1.953"/><g clip-path="url(#g)"><path fill="#646363" d="M108.418 17.285q-.07-.06-.07-.23v-1.223h-1.61a.58.58 0 0 1 .242.281q.094.195.094.36v.882l.004-.003v.117q.001.364.23.582.23.215.618.215h5.316v-.922h-4.578q-.17 0-.246-.059"/></g><path fill="#646363" d="M107.992 14.285v1.074h1.27v-1.074h2.27v-.926h-5.555v.926ZM86.375 9.398l-1.61-.003a.6.6 0 0 1 .243.285.9.9 0 0 1 .094.36v2.108h-1.23v.922h1.23v1.696h1.27Zm0 0"/><g clip-path="url(#h)"><path fill="#646363" d="m113.254 9.398-1.617-.003a.64.64 0 0 1 .246.285q.089.2.09.36v4.694H110.5v.926h1.473v.836h1.27Zm0 0"/></g><path fill="#646363" d="M85.102 16.57v.867h-3.364q-.17 0-.242-.058-.075-.053-.074-.23v-1h3.68Zm1.27-1.328h-.673a1 1 0 0 0-.195-.015h-5.352v2.183q0 .49.246.723.242.229.618.23h5.355v-2.312Zm4.078 2.141q-.172 0-.243-.059c-.05-.039-.074-.113-.074-.23V15.93h3.46l.005 1.453Zm4.413-2.395-6.008.02v2.344q0 .493.243.722.245.23.62.23h5.15Zm-27.063.055h-5.1v.926h5l.003.508v1.953h1.27v-.625h.004v-2.77H67.8Zm33.16.77q.858-.001 1.34.238c.325.156.485.379.485.656q.001.4-.484.648c-.32.165-.77.25-1.34.25q-.844-.001-1.348-.25-.509-.248-.508-.648c0-.277.168-.5.508-.656q.504-.239 1.348-.238m.906-1.395v.55a7 7 0 0 0-.918-.058q-.51 0-.949.059v-.551Zm3.035 0v-.922h-7.98v.922h1.746v.937c-.05.028-.102.051-.148.079-.29.164-.504.355-.653.574q-.222.323-.222.699 0 .374.222.707c.149.223.363.414.653.57q.428.245 1.039.383c.41.094.87.14 1.39.14q.781 0 1.39-.14a3.7 3.7 0 0 0 1.028-.383q.422-.235.645-.57a1.25 1.25 0 0 0 .222-.707q0-.376-.222-.7a1.94 1.94 0 0 0-.645-.573c-.05-.032-.11-.059-.164-.086v-.93Zm0 0"/></svg>